<?xml version="1.0" encoding="UTF-8" standalone="no"?>
<!DOCTYPE svg PUBLIC "-//W3C//DTD SVG 1.1//EN" "http://www.w3.org/Graphics/SVG/1.1/DTD/svg11.dtd">
<!-- Generated by Microsoft Visio, SVG Export vane_thick.svg Page-2 -->
<svg xmlns="http://www.w3.org/2000/svg" xmlns:xlink="http://www.w3.org/1999/xlink" xmlns:ev="http://www.w3.org/2001/xml-events"
		xmlns:v="http://schemas.microsoft.com/visio/2003/SVGExtensions/" width="1.58528in" height="0.74592in"
		viewBox="0 0 114.14 53.7062" xml:space="preserve" color-interpolation-filters="sRGB" class="st4">
	<v:documentProperties v:langID="4105" v:metric="true" v:viewMarkup="false">
		<v:userDefs>
			<v:ud v:nameU="msvNoAutoConnect" v:val="VT0(1):26"/>
		</v:userDefs>
	</v:documentProperties>

	<style type="text/css">
	<![CDATA[
		.st1 {fill:none}
		.st2 {stroke:#a5a5a5;stroke-linecap:round;stroke-linejoin:round;stroke-width:0.5}
		.st3 {stroke:#000000;stroke-linecap:round;stroke-linejoin:round;stroke-width:1}
		.st4 {fill:none;fill-rule:evenodd;font-size:12px;overflow:visible;stroke-linecap:square;stroke-miterlimit:3}
	]]>
	</style>

	<g v:mID="4" v:index="2" v:groupContext="foregroundPage">
		<title>Page-2</title>
		<v:pageProperties v:drawingScale="0.0393701" v:pageScale="0.0393701" v:drawingUnits="24" v:shadowOffsetX="8.50394"
				v:shadowOffsetY="-8.50394"/>
		<v:layer v:name="1" v:index="0" color="#000000"/>
		<v:layer v:name="DWGEntityColorOverrideLayer" v:index="1" v:visibility="hidden"/>
		<g id="group1-1" transform="translate(18.5004,-22.904)" v:mID="1" v:groupContext="group">
			<title>Sheet.1</title>
			<g id="shape2-2" v:mID="2" v:groupContext="shape" v:layerMember="0;1" transform="translate(4.28457,-4.26326E-14)">
				<title>Sheet.2</title>
				<v:userDefs>
					<v:ud v:nameU="SOLSH" v:prompt="" v:val="VT4({13D0FF3B-CF5B-4a46-98AB-14030248EAEF})"/>
					<v:ud v:nameU="DWGEntityType" v:prompt="" v:val="VT4(HATCH)"/>
				</v:userDefs>
				<path d="M57.98 52.27 L69.95 46.33 L69.95 46.33 L45.44 53.37 L61.4 45.44 L61.4 45.44 L34.43 53.71 L50.37 45.79 L50.37
							 45.79 L25.01 53.25 L38.36 46.62 L38.36 46.62 L16.23 52.48 L26.29 47.48 L26.29 47.48 L7.96 51.46 L14.98
							 47.97 L14.98 47.97 L0 50.28 L4.16 48.22 L4.16 48.22 L57.98 52.27 Z" class="st1"/>
				<path d="M57.98 52.27 L69.95 46.33 L69.95 46.33M45.44 53.37 L61.4 45.44 L61.4 45.44M34.43 53.71 L50.37 45.79 L50.37
							 45.79M25.01 53.25 L38.36 46.62 L38.36 46.62M16.23 52.48 L26.29 47.48 L26.29 47.48M7.96 51.46 L14.98
							 47.97 L14.98 47.97M0 50.28 L4.16 48.22 L4.16 48.22" class="st2"/>
			</g>
			<g id="group3-5" transform="translate(7.99361E-15,-0.000845592)" v:mID="3" v:groupContext="group">
				<title>Sheet.3</title>
				<g id="shape4-6" v:mID="4" v:groupContext="shape" v:layerMember="0;1" transform="translate(39.6022,-6.84028)">
					<title>Sheet.4</title>
					<v:userDefs>
						<v:ud v:nameU="SOLSH" v:prompt="" v:val="VT4({13D0FF3B-CF5B-4a46-98AB-14030248EAEF})"/>
						<v:ud v:nameU="DWGEntityType" v:prompt="" v:val="VT4(SPLINE)"/>
					</v:userDefs>
					<path d="M0 53.71 C1.39 53.6 2.77 53.48 4.16 53.37 C5.55 53.26 6.93 53.15 8.32 53.05 C9.72 52.95 11.11 52.86
								 12.5 52.78 C13.9 52.69 15.29 52.61 16.69 52.54 C18.09 52.47 19.49 52.4 20.89 52.35 C22.29 52.3 23.7
								 52.27 25.1 52.27 C26.51 52.27 27.91 52.31 29.31 52.41 C30 52.45 30.7 52.51 31.38 52.59 C32.07 52.67
								 32.74 52.77 33.4 52.9 L0 53.71 Z" class="st1"/>
					<path d="M0 53.71 C1.39 53.6 2.77 53.48 4.16 53.37 C5.55 53.26 6.93 53.15 8.32 53.05 C9.72 52.95 11.11 52.86
								 12.5 52.78 C13.9 52.69 15.29 52.61 16.69 52.54 C18.09 52.47 19.49 52.4 20.89 52.35 C22.29 52.3 23.7
								 52.27 25.1 52.27 C26.51 52.27 27.91 52.31 29.31 52.41 C30 52.45 30.7 52.51 31.38 52.59 C32.07 52.67
								 32.74 52.77 33.4 52.9" class="st3"/>
				</g>
				<g id="shape5-9" v:mID="5" v:groupContext="shape" v:layerMember="0;1" transform="translate(6.48954,-2.4869E-13)">
					<title>Sheet.5</title>
					<v:userDefs>
						<v:ud v:nameU="SOLSH" v:prompt="" v:val="VT4({13D0FF3B-CF5B-4a46-98AB-14030248EAEF})"/>
						<v:ud v:nameU="DWGEntityType" v:prompt="" v:val="VT4(SPLINE)"/>
					</v:userDefs>
					<path d="M66.51 50.55 C65.89 50.71 65.24 50.86 64.59 51 C63.94 51.13 63.27 51.25 62.6 51.37 C61.26 51.59 59.89
								 51.79 58.52 51.96 C57.14 52.13 55.76 52.28 54.37 52.42 C53.67 52.49 52.98 52.56 52.28 52.63 C51.59
								 52.7 50.89 52.77 50.2 52.83 C49.5 52.89 48.8 52.96 48.1 53.02 C47.41 53.08 46.71 53.13 46.01 53.19
								 C45.31 53.24 44.61 53.29 43.9 53.33 C43.2 53.37 42.5 53.41 41.79 53.45 C38.97 53.6 36.14 53.73 33.3
								 53.73 C30.47 53.72 27.64 53.57 24.83 53.39 C22.01 53.21 19.21 53 16.44 52.73 C13.66 52.46 10.9 52.14
								 8.16 51.78 C5.43 51.43 2.71 51.03 0 50.62 L66.51 50.55 Z" class="st1"/>
					<path d="M66.51 50.55 C65.89 50.71 65.24 50.86 64.59 51 C63.94 51.13 63.27 51.25 62.6 51.37 C61.26 51.59 59.89
								 51.79 58.52 51.96 C57.14 52.13 55.76 52.28 54.37 52.42 C53.67 52.49 52.98 52.56 52.28 52.63 C51.59
								 52.7 50.89 52.77 50.2 52.83 C49.5 52.89 48.8 52.96 48.1 53.02 C47.41 53.08 46.71 53.13 46.01 53.19
								 C45.31 53.24 44.61 53.29 43.9 53.33 C43.2 53.37 42.5 53.41 41.79 53.45 C38.97 53.6 36.14 53.73 33.3
								 53.73 C30.47 53.72 27.64 53.57 24.83 53.39 C22.01 53.21 19.21 53 16.44 52.73 C13.66 52.46 10.9 52.14
								 8.16 51.78 C5.43 51.43 2.71 51.03 0 50.62" class="st3"/>
				</g>
				<g id="shape6-12" v:mID="6" v:groupContext="shape" v:layerMember="0;1" transform="translate(73.004,-3.15834)">
					<title>Sheet.6</title>
					<v:userDefs>
						<v:ud v:nameU="SOLSH" v:prompt="" v:val="VT4({13D0FF3B-CF5B-4a46-98AB-14030248EAEF})"/>
						<v:ud v:nameU="DWGEntityType" v:prompt="" v:val="VT4(SPLINE)"/>
					</v:userDefs>
					<path d="M0 49.21 C0.51 49.31 1.02 49.42 1.5 49.55 C1.98 49.69 2.44 49.84 2.84 50.03 C3.24 50.22 3.59 50.44 3.82
								 50.68 C3.93 50.81 4.02 50.94 4.07 51.05 C4.12 51.16 4.14 51.25 4.13 51.36 C4.12 51.47 4.08 51.61
								 4 51.74 C3.93 51.87 3.83 52 3.7 52.12 C3.44 52.36 3.09 52.58 2.7 52.77 C2.31 52.96 1.87 53.13 1.42
								 53.29 C0.96 53.44 0.49 53.58 0 53.71 L0 49.21 Z" class="st1"/>
					<path d="M0 49.21 C0.51 49.31 1.02 49.42 1.5 49.55 C1.98 49.69 2.44 49.84 2.84 50.03 C3.24 50.22 3.59 50.44 3.82
								 50.68 C3.93 50.81 4.02 50.94 4.07 51.05 C4.12 51.16 4.14 51.25 4.13 51.36 C4.12 51.47 4.08 51.61
								 4 51.74 C3.93 51.87 3.83 52 3.7 52.12 C3.44 52.36 3.09 52.58 2.7 52.77 C2.31 52.96 1.87 53.13 1.42
								 53.29 C0.96 53.44 0.49 53.58 0 53.71" class="st3"/>
				</g>
				<g id="shape7-15" v:mID="7" v:groupContext="shape" v:layerMember="0;1" transform="translate(6.32484,-5.48359)">
					<title>Sheet.7</title>
					<v:userDefs>
						<v:ud v:nameU="SOLSH" v:prompt="" v:val="VT4({13D0FF3B-CF5B-4a46-98AB-14030248EAEF})"/>
						<v:ud v:nameU="DWGEntityType" v:prompt="" v:val="VT4(SPLINE)"/>
					</v:userDefs>
					<path d="M0 53.69 C2.93 53.74 5.7 53.67 8.47 53.59 C11.24 53.51 14 53.43 16.77 53.32 C19.53 53.22 22.29 53.09
								 25.04 52.92 C27.8 52.76 30.54 52.56 33.28 52.35 L0 53.69 Z" class="st1"/>
					<path d="M0 53.69 C2.93 53.74 5.7 53.67 8.47 53.59 C11.24 53.51 14 53.43 16.77 53.32 C19.53 53.22 22.29 53.09
								 25.04 52.92 C27.8 52.76 30.54 52.56 33.28 52.35" class="st3"/>
				</g>
				<g id="shape8-18" v:mID="8" v:groupContext="shape" v:layerMember="0;1" transform="translate(1.34892E-14,-3.08845)">
					<title>Sheet.8</title>
					<v:userDefs>
						<v:ud v:nameU="SOLSH" v:prompt="" v:val="VT4({13D0FF3B-CF5B-4a46-98AB-14030248EAEF})"/>
						<v:ud v:nameU="DWGEntityType" v:prompt="" v:val="VT4(SPLINE)"/>
					</v:userDefs>
					<path d="M6.49 53.71 C5.9 53.62 5.31 53.53 4.73 53.44 C4.14 53.35 3.55 53.26 2.97 53.16 C2.67 53.12 2.38 53.07
								 2.09 53.03 C1.94 53 1.79 52.98 1.65 52.96 C1.5 52.93 1.35 52.91 1.21 52.89 C1.06 52.87 0.91 52.84
								 0.77 52.81 C0.71 52.79 0.64 52.77 0.58 52.75 C0.52 52.72 0.46 52.7 0.42 52.67 C0.32 52.61 0.26 52.54
								 0.19 52.46 C0.12 52.39 0.05 52.31 0.02 52.23 C-0.01 52.16 0 52.08 0.03 52.01 C0.06 51.93 0.1 51.86
								 0.17 51.79 C0.23 51.72 0.31 51.65 0.42 51.6 C0.47 51.57 0.53 51.54 0.6 51.52 C0.66 51.5 0.73 51.49
								 0.81 51.47 C0.88 51.46 0.95 51.45 1.03 51.45 C1.1 51.44 1.18 51.44 1.26 51.43 C1.33 51.43 1.41 51.43
								 1.49 51.43 C1.57 51.42 1.64 51.42 1.72 51.42 C2.03 51.41 2.33 51.4 2.64 51.39 C2.95 51.38 3.25 51.37
								 3.56 51.36 C3.87 51.35 4.17 51.35 4.48 51.33 C5.09 51.31 5.71 51.29 6.32 51.3 L6.49 53.71 Z"
							class="st1"/>
					<path d="M6.49 53.71 C5.9 53.62 5.31 53.53 4.73 53.44 C4.14 53.35 3.55 53.26 2.97 53.16 C2.67 53.12 2.38 53.07
								 2.09 53.03 C1.94 53 1.79 52.98 1.65 52.96 C1.5 52.93 1.35 52.91 1.21 52.89 C1.06 52.87 0.91 52.84
								 0.77 52.81 C0.71 52.79 0.64 52.77 0.58 52.75 C0.52 52.72 0.46 52.7 0.42 52.67 C0.32 52.61 0.26 52.54
								 0.19 52.46 C0.12 52.39 0.05 52.31 0.02 52.23 C-0.01 52.16 0 52.08 0.03 52.01 C0.06 51.93 0.1 51.86
								 0.17 51.79 C0.23 51.72 0.31 51.65 0.42 51.6 C0.47 51.57 0.53 51.54 0.6 51.52 C0.66 51.5 0.73 51.49
								 0.81 51.47 C0.88 51.46 0.95 51.45 1.03 51.45 C1.1 51.44 1.18 51.44 1.26 51.43 C1.33 51.43 1.41 51.43
								 1.49 51.43 C1.57 51.42 1.64 51.42 1.72 51.42 C2.03 51.41 2.33 51.4 2.64 51.39 C2.95 51.38 3.25 51.37
								 3.56 51.36 C3.87 51.35 4.17 51.35 4.48 51.33 C5.09 51.31 5.71 51.29 6.32 51.3" class="st3"/>
				</g>
				<g id="shape9-21" v:mID="9" v:groupContext="shape" v:layerMember="0;1" transform="translate(1.34892E-14,-3.08845)">
					<title>Sheet.9</title>
					<v:userDefs>
						<v:ud v:nameU="SOLSH" v:prompt="" v:val="VT4({13D0FF3B-CF5B-4a46-98AB-14030248EAEF})"/>
						<v:ud v:nameU="DWGEntityType" v:prompt="" v:val="VT4(SPLINE)"/>
					</v:userDefs>
					<path d="M6.49 53.71 C5.9 53.62 5.31 53.53 4.73 53.44 C4.14 53.35 3.55 53.26 2.97 53.16 C2.67 53.12 2.38 53.07
								 2.09 53.03 C1.94 53 1.79 52.98 1.65 52.96 C1.5 52.93 1.35 52.91 1.21 52.89 C1.06 52.87 0.91 52.84
								 0.77 52.81 C0.71 52.79 0.64 52.77 0.58 52.75 C0.52 52.72 0.46 52.7 0.42 52.67 C0.32 52.61 0.26 52.54
								 0.19 52.46 C0.12 52.39 0.05 52.31 0.02 52.23 C-0.01 52.16 0 52.08 0.03 52.01 C0.06 51.93 0.1 51.86
								 0.17 51.79 C0.23 51.72 0.31 51.65 0.42 51.6 C0.47 51.57 0.53 51.54 0.6 51.52 C0.66 51.5 0.73 51.49
								 0.81 51.47 C0.88 51.46 0.95 51.45 1.03 51.45 C1.1 51.44 1.18 51.44 1.26 51.43 C1.33 51.43 1.41 51.43
								 1.49 51.43 C1.57 51.42 1.64 51.42 1.72 51.42 C2.03 51.41 2.33 51.4 2.64 51.39 C2.95 51.38 3.25 51.37
								 3.56 51.36 C3.87 51.35 4.17 51.35 4.48 51.33 C5.09 51.31 5.71 51.29 6.32 51.3 L6.49 53.71 Z"
							class="st1"/>
					<path d="M6.49 53.71 C5.9 53.62 5.31 53.53 4.73 53.44 C4.14 53.35 3.55 53.26 2.97 53.16 C2.67 53.12 2.38 53.07
								 2.09 53.03 C1.94 53 1.79 52.98 1.65 52.96 C1.5 52.93 1.35 52.91 1.21 52.89 C1.06 52.87 0.91 52.84
								 0.77 52.81 C0.71 52.79 0.64 52.77 0.58 52.75 C0.52 52.72 0.46 52.7 0.42 52.67 C0.32 52.61 0.26 52.54
								 0.19 52.46 C0.12 52.39 0.05 52.31 0.02 52.23 C-0.01 52.16 0 52.08 0.03 52.01 C0.06 51.93 0.1 51.86
								 0.17 51.79 C0.23 51.72 0.31 51.65 0.42 51.6 C0.47 51.57 0.53 51.54 0.6 51.52 C0.66 51.5 0.73 51.49
								 0.81 51.47 C0.88 51.46 0.95 51.45 1.03 51.45 C1.1 51.44 1.18 51.44 1.26 51.43 C1.33 51.43 1.41 51.43
								 1.49 51.43 C1.57 51.42 1.64 51.42 1.72 51.42 C2.03 51.41 2.33 51.4 2.64 51.39 C2.95 51.38 3.25 51.37
								 3.56 51.36 C3.87 51.35 4.17 51.35 4.48 51.33 C5.09 51.31 5.71 51.29 6.32 51.3" class="st3"/>
				</g>
				<g id="shape10-24" v:mID="10" v:groupContext="shape" v:layerMember="0;1" transform="translate(6.32484,-5.48359)">
					<title>Sheet.10</title>
					<v:userDefs>
						<v:ud v:nameU="SOLSH" v:prompt="" v:val="VT4({13D0FF3B-CF5B-4a46-98AB-14030248EAEF})"/>
						<v:ud v:nameU="DWGEntityType" v:prompt="" v:val="VT4(SPLINE)"/>
					</v:userDefs>
					<path d="M0 53.69 C2.93 53.74 5.7 53.67 8.47 53.59 C11.24 53.51 14 53.43 16.77 53.32 C19.53 53.22 22.29 53.09
								 25.04 52.92 C27.8 52.76 30.54 52.56 33.28 52.35 L0 53.69 Z" class="st1"/>
					<path d="M0 53.69 C2.93 53.74 5.7 53.67 8.47 53.59 C11.24 53.51 14 53.43 16.77 53.32 C19.53 53.22 22.29 53.09
								 25.04 52.92 C27.8 52.76 30.54 52.56 33.28 52.35" class="st3"/>
				</g>
				<g id="shape11-27" v:mID="11" v:groupContext="shape" v:layerMember="0;1" transform="translate(39.6022,-6.84028)">
					<title>Sheet.11</title>
					<v:userDefs>
						<v:ud v:nameU="SOLSH" v:prompt="" v:val="VT4({13D0FF3B-CF5B-4a46-98AB-14030248EAEF})"/>
						<v:ud v:nameU="DWGEntityType" v:prompt="" v:val="VT4(SPLINE)"/>
					</v:userDefs>
					<path d="M0 53.71 C1.39 53.6 2.77 53.48 4.16 53.37 C5.55 53.26 6.93 53.15 8.32 53.05 C9.72 52.95 11.11 52.86
								 12.5 52.78 C13.9 52.69 15.29 52.61 16.69 52.54 C18.09 52.47 19.49 52.4 20.89 52.35 C22.29 52.3 23.7
								 52.27 25.1 52.27 C26.51 52.27 27.91 52.31 29.31 52.41 C30 52.45 30.7 52.51 31.38 52.59 C32.07 52.67
								 32.74 52.77 33.4 52.9 L0 53.71 Z" class="st1"/>
					<path d="M0 53.71 C1.39 53.6 2.77 53.48 4.16 53.37 C5.55 53.26 6.93 53.15 8.32 53.05 C9.72 52.95 11.11 52.86
								 12.5 52.78 C13.9 52.69 15.29 52.61 16.69 52.54 C18.09 52.47 19.49 52.4 20.89 52.35 C22.29 52.3 23.7
								 52.27 25.1 52.27 C26.51 52.27 27.91 52.31 29.31 52.41 C30 52.45 30.7 52.51 31.38 52.59 C32.07 52.67
								 32.74 52.77 33.4 52.9" class="st3"/>
				</g>
				<g id="shape12-30" v:mID="12" v:groupContext="shape" v:layerMember="0;1" transform="translate(73.004,-3.15834)">
					<title>Sheet.12</title>
					<v:userDefs>
						<v:ud v:nameU="SOLSH" v:prompt="" v:val="VT4({13D0FF3B-CF5B-4a46-98AB-14030248EAEF})"/>
						<v:ud v:nameU="DWGEntityType" v:prompt="" v:val="VT4(SPLINE)"/>
					</v:userDefs>
					<path d="M0 49.21 C0.51 49.31 1.02 49.42 1.5 49.55 C1.98 49.69 2.44 49.84 2.84 50.03 C3.24 50.22 3.59 50.44 3.82
								 50.68 C3.93 50.81 4.02 50.94 4.07 51.05 C4.12 51.16 4.14 51.25 4.13 51.36 C4.12 51.47 4.08 51.61
								 4 51.74 C3.93 51.87 3.83 52 3.7 52.12 C3.44 52.36 3.09 52.58 2.7 52.77 C2.31 52.96 1.87 53.13 1.42
								 53.29 C0.96 53.44 0.49 53.58 0 53.71 L0 49.21 Z" class="st1"/>
					<path d="M0 49.21 C0.51 49.31 1.02 49.42 1.5 49.55 C1.98 49.69 2.44 49.84 2.84 50.03 C3.24 50.22 3.59 50.44 3.82
								 50.68 C3.93 50.81 4.02 50.94 4.07 51.05 C4.12 51.16 4.14 51.25 4.13 51.36 C4.12 51.47 4.08 51.61
								 4 51.74 C3.93 51.87 3.83 52 3.7 52.12 C3.44 52.36 3.09 52.58 2.7 52.77 C2.31 52.96 1.87 53.13 1.42
								 53.29 C0.96 53.44 0.49 53.58 0 53.71" class="st3"/>
				</g>
				<g id="shape13-33" v:mID="13" v:groupContext="shape" v:layerMember="0;1" transform="translate(6.48954,0)">
					<title>Sheet.13</title>
					<v:userDefs>
						<v:ud v:nameU="SOLSH" v:prompt="" v:val="VT4({13D0FF3B-CF5B-4a46-98AB-14030248EAEF})"/>
						<v:ud v:nameU="DWGEntityType" v:prompt="" v:val="VT4(SPLINE)"/>
					</v:userDefs>
					<path d="M66.51 50.55 C65.89 50.71 65.24 50.86 64.59 51 C63.94 51.13 63.27 51.25 62.6 51.37 C61.26 51.59 59.89
								 51.79 58.52 51.96 C57.14 52.13 55.76 52.28 54.37 52.42 C53.67 52.49 52.98 52.56 52.28 52.63 C51.59
								 52.7 50.89 52.77 50.2 52.83 C49.5 52.89 48.8 52.96 48.1 53.02 C47.41 53.08 46.71 53.13 46.01 53.19
								 C45.31 53.24 44.61 53.29 43.9 53.33 C43.2 53.37 42.5 53.41 41.79 53.45 C38.97 53.6 36.14 53.73 33.3
								 53.73 C30.47 53.72 27.64 53.57 24.83 53.39 C22.01 53.21 19.21 53 16.44 52.73 C13.66 52.46 10.9 52.14
								 8.16 51.78 C5.43 51.43 2.71 51.03 0 50.62 L66.51 50.55 Z" class="st1"/>
					<path d="M66.51 50.55 C65.89 50.71 65.24 50.86 64.59 51 C63.94 51.13 63.27 51.25 62.6 51.37 C61.26 51.59 59.89
								 51.79 58.52 51.96 C57.14 52.13 55.76 52.28 54.37 52.42 C53.67 52.49 52.98 52.56 52.28 52.63 C51.59
								 52.7 50.89 52.77 50.2 52.83 C49.5 52.89 48.8 52.96 48.1 53.02 C47.41 53.08 46.71 53.13 46.01 53.19
								 C45.31 53.24 44.61 53.29 43.9 53.33 C43.2 53.37 42.5 53.41 41.79 53.45 C38.97 53.6 36.14 53.73 33.3
								 53.73 C30.47 53.72 27.64 53.57 24.83 53.39 C22.01 53.21 19.21 53 16.44 52.73 C13.66 52.46 10.9 52.14
								 8.16 51.78 C5.43 51.43 2.71 51.03 0 50.62" class="st3"/>
				</g>
			</g>
		</g>
	</g>
</svg>
