<?xml version="1.0" encoding="UTF-8" standalone="no"?>
<!DOCTYPE svg PUBLIC "-//W3C//DTD SVG 1.1//EN" "http://www.w3.org/Graphics/SVG/1.1/DTD/svg11.dtd">
<!-- Generated by Microsoft Visio, SVG Export vane_thick1.svg Page-1 -->
<svg xmlns="http://www.w3.org/2000/svg" xmlns:xlink="http://www.w3.org/1999/xlink" xmlns:ev="http://www.w3.org/2001/xml-events"
		xmlns:v="http://schemas.microsoft.com/visio/2003/SVGExtensions/" width="1.58528in" height="0.74592in"
		viewBox="0 0 114.14 53.7062" xml:space="preserve" color-interpolation-filters="sRGB" class="st4">
	<v:documentProperties v:langID="4105" v:metric="true" v:viewMarkup="false">
		<v:userDefs>
			<v:ud v:nameU="msvNoAutoConnect" v:val="VT0(1):26"/>
		</v:userDefs>
	</v:documentProperties>

	<style type="text/css">
	<![CDATA[
		.st1 {fill:none}
		.st2 {stroke:#ff0000;stroke-linecap:round;stroke-linejoin:round;stroke-width:0.5}
		.st3 {stroke:#000000;stroke-linecap:round;stroke-linejoin:round;stroke-width:1}
		.st4 {fill:none;fill-rule:evenodd;font-size:12px;overflow:visible;stroke-linecap:square;stroke-miterlimit:3}
	]]>
	</style>

	<g v:mID="0" v:index="1" v:groupContext="foregroundPage">
		<title>Page-1</title>
		<v:pageProperties v:drawingScale="0.0393701" v:pageScale="0.0393701" v:drawingUnits="24" v:shadowOffsetX="8.50394"
				v:shadowOffsetY="-8.50394"/>
		<v:layer v:name="1" v:index="0" color="#000000"/>
		<v:layer v:name="DWGEntityColorOverrideLayer" v:index="1" v:visibility="hidden"/>
		<g id="group1-1" transform="translate(18.5004,-18.5385)" v:mID="1" v:groupContext="group">
			<title>Sheet.1</title>
			<g id="shape2-2" v:mID="2" v:groupContext="shape" v:layerMember="0;1" transform="translate(4.28457,0)">
				<title>Sheet.2</title>
				<v:userDefs>
					<v:ud v:nameU="SOLSH" v:prompt="" v:val="VT4({13D0FF3B-CF5B-4a46-98AB-14030248EAEF})"/>
					<v:ud v:nameU="DWGEntityType" v:prompt="" v:val="VT4(HATCH)"/>
				</v:userDefs>
				<path d="M57.98 50.82 L69.95 38.84 L69.95 38.84 L45.44 53.03 L61.4 37.06 L61.4 37.06 L34.43 53.71 L50.37 37.76 L50.37
							 37.76 L25.01 52.79 L38.36 39.44 L38.36 39.44 L16.23 51.24 L26.29 41.18 L26.29 41.18 L7.96 49.18 L14.98
							 42.16 L14.98 42.16 L0 46.81 L4.16 42.65 L4.16 42.65 L57.98 50.82 Z" class="st1"/>
				<path d="M57.98 50.82 L69.95 38.84 L69.95 38.84M45.44 53.03 L61.4 37.06 L61.4 37.06M34.43 53.71 L50.37 37.76 L50.37
							 37.76M25.01 52.79 L38.36 39.44 L38.36 39.44M16.23 51.24 L26.29 41.18 L26.29 41.18M7.96 49.18 L14.98
							 42.16 L14.98 42.16M0 46.81 L4.16 42.65 L4.16 42.65" class="st2"/>
			</g>
			<g id="group3-5" transform="translate(7.99361E-15,-0.00170278)" v:mID="3" v:groupContext="group">
				<title>Sheet.3</title>
				<g id="shape4-6" v:mID="4" v:groupContext="shape" v:layerMember="0;1" transform="translate(39.6022,-13.7744)">
					<title>Sheet.4</title>
					<v:userDefs>
						<v:ud v:nameU="SOLSH" v:prompt="" v:val="VT4({13D0FF3B-CF5B-4a46-98AB-14030248EAEF})"/>
						<v:ud v:nameU="DWGEntityType" v:prompt="" v:val="VT4(SPLINE)"/>
					</v:userDefs>
					<path d="M0 53.71 C1.39 53.49 2.77 53.26 4.16 53.03 C5.55 52.81 6.93 52.59 8.32 52.39 C9.72 52.19 11.11 52.01
								 12.5 51.84 C13.9 51.67 15.29 51.51 16.69 51.36 C18.09 51.21 19.49 51.07 20.89 50.97 C22.29 50.87
								 23.7 50.81 25.1 50.81 C26.51 50.82 27.91 50.9 29.31 51.09 C30 51.18 30.7 51.31 31.38 51.47 C32.07
								 51.63 32.74 51.83 33.4 52.07 L0 53.71 Z" class="st1"/>
					<path d="M0 53.71 C1.39 53.49 2.77 53.26 4.16 53.03 C5.55 52.81 6.93 52.59 8.32 52.39 C9.72 52.19 11.11 52.01
								 12.5 51.84 C13.9 51.67 15.29 51.51 16.69 51.36 C18.09 51.21 19.49 51.07 20.89 50.97 C22.29 50.87
								 23.7 50.81 25.1 50.81 C26.51 50.82 27.91 50.9 29.31 51.09 C30 51.18 30.7 51.31 31.38 51.47 C32.07
								 51.63 32.74 51.83 33.4 52.07" class="st3"/>
				</g>
				<g id="shape5-9" v:mID="5" v:groupContext="shape" v:layerMember="0;1" transform="translate(6.48954,-4.9738E-13)">
					<title>Sheet.5</title>
					<v:userDefs>
						<v:ud v:nameU="SOLSH" v:prompt="" v:val="VT4({13D0FF3B-CF5B-4a46-98AB-14030248EAEF})"/>
						<v:ud v:nameU="DWGEntityType" v:prompt="" v:val="VT4(SPLINE)"/>
					</v:userDefs>
					<path d="M66.51 47.35 C65.89 47.68 65.24 47.98 64.59 48.25 C63.94 48.52 63.27 48.77 62.6 49 C61.26 49.45 59.89
								 49.84 58.52 50.18 C57.14 50.53 55.76 50.83 54.37 51.12 C53.67 51.27 52.98 51.41 52.28 51.54 C51.59
								 51.68 50.89 51.81 50.2 51.94 C49.5 52.07 48.8 52.2 48.1 52.32 C47.41 52.44 46.71 52.55 46.01 52.66
								 C45.31 52.77 44.61 52.86 43.9 52.95 C43.2 53.04 42.5 53.11 41.79 53.19 C38.97 53.48 36.14 53.76
								 33.3 53.75 C30.47 53.73 27.64 53.43 24.83 53.07 C22.01 52.7 19.21 52.28 16.44 51.74 C13.66 51.2
								 10.9 50.56 8.16 49.83 C5.43 49.11 2.71 48.31 0 47.49 L66.51 47.35 Z" class="st1"/>
					<path d="M66.51 47.35 C65.89 47.68 65.24 47.98 64.59 48.25 C63.94 48.52 63.27 48.77 62.6 49 C61.26 49.45 59.89
								 49.84 58.52 50.18 C57.14 50.53 55.76 50.83 54.37 51.12 C53.67 51.27 52.98 51.41 52.28 51.54 C51.59
								 51.68 50.89 51.81 50.2 51.94 C49.5 52.07 48.8 52.2 48.1 52.32 C47.41 52.44 46.71 52.55 46.01 52.66
								 C45.31 52.77 44.61 52.86 43.9 52.95 C43.2 53.04 42.5 53.11 41.79 53.19 C38.97 53.48 36.14 53.76
								 33.3 53.75 C30.47 53.73 27.64 53.43 24.83 53.07 C22.01 52.7 19.21 52.28 16.44 51.74 C13.66 51.2
								 10.9 50.56 8.16 49.83 C5.43 49.11 2.71 48.31 0 47.49" class="st3"/>
				</g>
				<g id="shape6-12" v:mID="6" v:groupContext="shape" v:layerMember="0;1" transform="translate(73.004,-6.35999)">
					<title>Sheet.6</title>
					<v:userDefs>
						<v:ud v:nameU="SOLSH" v:prompt="" v:val="VT4({13D0FF3B-CF5B-4a46-98AB-14030248EAEF})"/>
						<v:ud v:nameU="DWGEntityType" v:prompt="" v:val="VT4(SPLINE)"/>
					</v:userDefs>
					<path d="M0 44.66 C0.51 44.85 1.02 45.08 1.5 45.35 C1.98 45.61 2.44 45.93 2.84 46.3 C3.24 46.68 3.59 47.12 3.82
								 47.62 C3.93 47.87 4.02 48.13 4.07 48.36 C4.12 48.58 4.14 48.76 4.13 48.98 C4.12 49.21 4.08 49.48
								 4 49.75 C3.93 50.01 3.83 50.27 3.7 50.51 C3.44 51 3.09 51.44 2.7 51.82 C2.31 52.21 1.87 52.55 1.42
								 52.86 C0.96 53.17 0.49 53.45 0 53.71 L0 44.66 Z" class="st1"/>
					<path d="M0 44.66 C0.51 44.85 1.02 45.08 1.5 45.35 C1.98 45.61 2.44 45.93 2.84 46.3 C3.24 46.68 3.59 47.12 3.82
								 47.62 C3.93 47.87 4.02 48.13 4.07 48.36 C4.12 48.58 4.14 48.76 4.13 48.98 C4.12 49.21 4.08 49.48
								 4 49.75 C3.93 50.01 3.83 50.27 3.7 50.51 C3.44 51 3.09 51.44 2.7 51.82 C2.31 52.21 1.87 52.55 1.42
								 52.86 C0.96 53.17 0.49 53.45 0 53.71" class="st3"/>
				</g>
				<g id="shape7-15" v:mID="7" v:groupContext="shape" v:layerMember="0;1" transform="translate(6.32484,-11.0424)">
					<title>Sheet.7</title>
					<v:userDefs>
						<v:ud v:nameU="SOLSH" v:prompt="" v:val="VT4({13D0FF3B-CF5B-4a46-98AB-14030248EAEF})"/>
						<v:ud v:nameU="DWGEntityType" v:prompt="" v:val="VT4(SPLINE)"/>
					</v:userDefs>
					<path d="M0 53.68 C2.93 53.77 5.7 53.63 8.47 53.47 C11.24 53.31 14 53.15 16.77 52.93 C19.53 52.72 22.29 52.46
								 25.04 52.13 C27.8 51.81 30.54 51.41 33.28 50.97 L0 53.68 Z" class="st1"/>
					<path d="M0 53.68 C2.93 53.77 5.7 53.63 8.47 53.47 C11.24 53.31 14 53.15 16.77 52.93 C19.53 52.72 22.29 52.46
								 25.04 52.13 C27.8 51.81 30.54 51.41 33.28 50.97" class="st3"/>
				</g>
				<g id="shape8-18" v:mID="8" v:groupContext="shape" v:layerMember="0;1" transform="translate(1.34892E-14,-6.21926)">
					<title>Sheet.8</title>
					<v:userDefs>
						<v:ud v:nameU="SOLSH" v:prompt="" v:val="VT4({13D0FF3B-CF5B-4a46-98AB-14030248EAEF})"/>
						<v:ud v:nameU="DWGEntityType" v:prompt="" v:val="VT4(SPLINE)"/>
					</v:userDefs>
					<path d="M6.49 53.71 C5.9 53.53 5.31 53.35 4.73 53.16 C4.14 52.98 3.55 52.8 2.97 52.61 C2.67 52.52 2.38 52.43
								 2.09 52.34 C1.94 52.29 1.79 52.24 1.65 52.2 C1.5 52.15 1.35 52.1 1.21 52.06 C1.06 52.01 0.91 51.97
								 0.77 51.9 C0.71 51.86 0.64 51.82 0.58 51.78 C0.52 51.73 0.46 51.67 0.42 51.61 C0.32 51.49 0.26 51.35
								 0.19 51.2 C0.12 51.05 0.05 50.9 0.02 50.74 C-0.01 50.59 0 50.43 0.03 50.28 C0.06 50.13 0.1 49.98
								 0.17 49.84 C0.23 49.7 0.31 49.57 0.42 49.46 C0.47 49.4 0.53 49.35 0.6 49.31 C0.66 49.27 0.73 49.24
								 0.81 49.21 C0.88 49.19 0.95 49.17 1.03 49.15 C1.1 49.14 1.18 49.13 1.26 49.13 C1.33 49.12 1.41 49.12
								 1.49 49.11 C1.57 49.11 1.64 49.1 1.72 49.1 C2.03 49.08 2.33 49.06 2.64 49.04 C2.95 49.02 3.25 49.01
								 3.56 48.99 C3.87 48.97 4.17 48.95 4.48 48.93 C5.09 48.89 5.71 48.84 6.32 48.86 L6.49 53.71 Z"
							class="st1"/>
					<path d="M6.49 53.71 C5.9 53.53 5.31 53.35 4.73 53.16 C4.14 52.98 3.55 52.8 2.97 52.61 C2.67 52.52 2.38 52.43
								 2.09 52.34 C1.94 52.29 1.79 52.24 1.65 52.2 C1.5 52.15 1.35 52.1 1.21 52.06 C1.06 52.01 0.91 51.97
								 0.77 51.9 C0.71 51.86 0.64 51.82 0.58 51.78 C0.52 51.73 0.46 51.67 0.42 51.61 C0.32 51.49 0.26 51.35
								 0.19 51.2 C0.12 51.05 0.05 50.9 0.02 50.74 C-0.01 50.59 0 50.43 0.03 50.28 C0.06 50.13 0.1 49.98
								 0.17 49.84 C0.23 49.7 0.31 49.57 0.42 49.46 C0.47 49.4 0.53 49.35 0.6 49.31 C0.66 49.27 0.73 49.24
								 0.81 49.21 C0.88 49.19 0.95 49.17 1.03 49.15 C1.1 49.14 1.18 49.13 1.26 49.13 C1.33 49.12 1.41 49.12
								 1.49 49.11 C1.57 49.11 1.64 49.1 1.72 49.1 C2.03 49.08 2.33 49.06 2.64 49.04 C2.95 49.02 3.25 49.01
								 3.56 48.99 C3.87 48.97 4.17 48.95 4.48 48.93 C5.09 48.89 5.71 48.84 6.32 48.86" class="st3"/>
				</g>
				<g id="shape9-21" v:mID="9" v:groupContext="shape" v:layerMember="0;1" transform="translate(1.34892E-14,-6.21926)">
					<title>Sheet.9</title>
					<v:userDefs>
						<v:ud v:nameU="SOLSH" v:prompt="" v:val="VT4({13D0FF3B-CF5B-4a46-98AB-14030248EAEF})"/>
						<v:ud v:nameU="DWGEntityType" v:prompt="" v:val="VT4(SPLINE)"/>
					</v:userDefs>
					<path d="M6.49 53.71 C5.9 53.53 5.31 53.35 4.73 53.16 C4.14 52.98 3.55 52.8 2.97 52.61 C2.67 52.52 2.38 52.43
								 2.09 52.34 C1.94 52.29 1.79 52.24 1.65 52.2 C1.5 52.15 1.35 52.1 1.21 52.06 C1.06 52.01 0.91 51.97
								 0.77 51.9 C0.71 51.86 0.64 51.82 0.58 51.78 C0.52 51.73 0.46 51.67 0.42 51.61 C0.32 51.49 0.26 51.35
								 0.19 51.2 C0.12 51.05 0.05 50.9 0.02 50.74 C-0.01 50.59 0 50.43 0.03 50.28 C0.06 50.13 0.1 49.98
								 0.17 49.84 C0.23 49.7 0.31 49.57 0.42 49.46 C0.47 49.4 0.53 49.35 0.6 49.31 C0.66 49.27 0.73 49.24
								 0.81 49.21 C0.88 49.19 0.95 49.17 1.03 49.15 C1.1 49.14 1.18 49.13 1.26 49.13 C1.33 49.12 1.41 49.12
								 1.49 49.11 C1.57 49.11 1.64 49.1 1.72 49.1 C2.03 49.08 2.33 49.06 2.64 49.04 C2.95 49.02 3.25 49.01
								 3.56 48.99 C3.87 48.97 4.17 48.95 4.48 48.93 C5.09 48.89 5.71 48.84 6.32 48.86 L6.49 53.71 Z"
							class="st1"/>
					<path d="M6.49 53.71 C5.9 53.53 5.31 53.35 4.73 53.16 C4.14 52.98 3.55 52.8 2.97 52.61 C2.67 52.52 2.38 52.43
								 2.09 52.34 C1.94 52.29 1.79 52.24 1.65 52.2 C1.5 52.15 1.35 52.1 1.21 52.06 C1.06 52.01 0.91 51.97
								 0.77 51.9 C0.71 51.86 0.64 51.82 0.58 51.78 C0.52 51.73 0.46 51.67 0.42 51.61 C0.32 51.49 0.26 51.35
								 0.19 51.2 C0.12 51.05 0.05 50.9 0.02 50.74 C-0.01 50.59 0 50.43 0.03 50.28 C0.06 50.13 0.1 49.98
								 0.17 49.84 C0.23 49.7 0.31 49.57 0.42 49.46 C0.47 49.4 0.53 49.35 0.6 49.31 C0.66 49.27 0.73 49.24
								 0.81 49.21 C0.88 49.19 0.95 49.17 1.03 49.15 C1.1 49.14 1.18 49.13 1.26 49.13 C1.33 49.12 1.41 49.12
								 1.49 49.11 C1.57 49.11 1.64 49.1 1.72 49.1 C2.03 49.08 2.33 49.06 2.64 49.04 C2.95 49.02 3.25 49.01
								 3.56 48.99 C3.87 48.97 4.17 48.95 4.48 48.93 C5.09 48.89 5.71 48.84 6.32 48.86" class="st3"/>
				</g>
				<g id="shape10-24" v:mID="10" v:groupContext="shape" v:layerMember="0;1" transform="translate(6.32484,-11.0424)">
					<title>Sheet.10</title>
					<v:userDefs>
						<v:ud v:nameU="SOLSH" v:prompt="" v:val="VT4({13D0FF3B-CF5B-4a46-98AB-14030248EAEF})"/>
						<v:ud v:nameU="DWGEntityType" v:prompt="" v:val="VT4(SPLINE)"/>
					</v:userDefs>
					<path d="M0 53.68 C2.93 53.77 5.7 53.63 8.47 53.47 C11.24 53.31 14 53.15 16.77 52.93 C19.53 52.72 22.29 52.46
								 25.04 52.13 C27.8 51.81 30.54 51.41 33.28 50.97 L0 53.68 Z" class="st1"/>
					<path d="M0 53.68 C2.93 53.77 5.7 53.63 8.47 53.47 C11.24 53.31 14 53.15 16.77 52.93 C19.53 52.72 22.29 52.46
								 25.04 52.13 C27.8 51.81 30.54 51.41 33.28 50.97" class="st3"/>
				</g>
				<g id="shape11-27" v:mID="11" v:groupContext="shape" v:layerMember="0;1" transform="translate(39.6022,-13.7744)">
					<title>Sheet.11</title>
					<v:userDefs>
						<v:ud v:nameU="SOLSH" v:prompt="" v:val="VT4({13D0FF3B-CF5B-4a46-98AB-14030248EAEF})"/>
						<v:ud v:nameU="DWGEntityType" v:prompt="" v:val="VT4(SPLINE)"/>
					</v:userDefs>
					<path d="M0 53.71 C1.39 53.49 2.77 53.26 4.16 53.03 C5.55 52.81 6.93 52.59 8.32 52.39 C9.72 52.19 11.11 52.01
								 12.5 51.84 C13.9 51.67 15.29 51.51 16.69 51.36 C18.09 51.21 19.49 51.07 20.89 50.97 C22.29 50.87
								 23.7 50.81 25.1 50.81 C26.51 50.82 27.91 50.9 29.31 51.09 C30 51.18 30.7 51.31 31.38 51.47 C32.07
								 51.63 32.74 51.83 33.4 52.07 L0 53.71 Z" class="st1"/>
					<path d="M0 53.71 C1.39 53.49 2.77 53.26 4.16 53.03 C5.55 52.81 6.93 52.59 8.32 52.39 C9.72 52.19 11.11 52.01
								 12.5 51.84 C13.9 51.67 15.29 51.51 16.69 51.36 C18.09 51.21 19.49 51.07 20.89 50.97 C22.29 50.87
								 23.7 50.81 25.1 50.81 C26.51 50.82 27.91 50.9 29.31 51.09 C30 51.18 30.7 51.31 31.38 51.47 C32.07
								 51.63 32.74 51.83 33.4 52.07" class="st3"/>
				</g>
				<g id="shape12-30" v:mID="12" v:groupContext="shape" v:layerMember="0;1" transform="translate(73.004,-6.35999)">
					<title>Sheet.12</title>
					<v:userDefs>
						<v:ud v:nameU="SOLSH" v:prompt="" v:val="VT4({13D0FF3B-CF5B-4a46-98AB-14030248EAEF})"/>
						<v:ud v:nameU="DWGEntityType" v:prompt="" v:val="VT4(SPLINE)"/>
					</v:userDefs>
					<path d="M0 44.66 C0.51 44.85 1.02 45.08 1.5 45.35 C1.98 45.61 2.44 45.93 2.84 46.3 C3.24 46.68 3.59 47.12 3.82
								 47.62 C3.93 47.87 4.02 48.13 4.07 48.36 C4.12 48.58 4.14 48.76 4.13 48.98 C4.12 49.21 4.08 49.48
								 4 49.75 C3.93 50.01 3.83 50.27 3.7 50.51 C3.44 51 3.09 51.44 2.7 51.82 C2.31 52.21 1.87 52.55 1.42
								 52.86 C0.96 53.17 0.49 53.45 0 53.71 L0 44.66 Z" class="st1"/>
					<path d="M0 44.66 C0.51 44.85 1.02 45.08 1.5 45.35 C1.98 45.61 2.44 45.93 2.84 46.3 C3.24 46.68 3.59 47.12 3.82
								 47.62 C3.93 47.87 4.02 48.13 4.07 48.36 C4.12 48.58 4.14 48.76 4.13 48.98 C4.12 49.21 4.08 49.48
								 4 49.75 C3.93 50.01 3.83 50.27 3.7 50.51 C3.44 51 3.09 51.44 2.7 51.82 C2.31 52.21 1.87 52.55 1.42
								 52.86 C0.96 53.17 0.49 53.45 0 53.71" class="st3"/>
				</g>
				<g id="shape13-33" v:mID="13" v:groupContext="shape" v:layerMember="0;1" transform="translate(6.48954,1.42109E-14)">
					<title>Sheet.13</title>
					<v:userDefs>
						<v:ud v:nameU="SOLSH" v:prompt="" v:val="VT4({13D0FF3B-CF5B-4a46-98AB-14030248EAEF})"/>
						<v:ud v:nameU="DWGEntityType" v:prompt="" v:val="VT4(SPLINE)"/>
					</v:userDefs>
					<path d="M66.51 47.35 C65.89 47.68 65.24 47.98 64.59 48.25 C63.94 48.52 63.27 48.77 62.6 49 C61.26 49.45 59.89
								 49.84 58.52 50.18 C57.14 50.53 55.76 50.83 54.37 51.12 C53.67 51.27 52.98 51.41 52.28 51.54 C51.59
								 51.68 50.89 51.81 50.2 51.94 C49.5 52.07 48.8 52.2 48.1 52.32 C47.41 52.44 46.71 52.55 46.01 52.66
								 C45.31 52.77 44.61 52.86 43.9 52.95 C43.2 53.04 42.5 53.11 41.79 53.19 C38.97 53.48 36.14 53.76
								 33.3 53.75 C30.47 53.73 27.64 53.43 24.83 53.07 C22.01 52.7 19.21 52.28 16.44 51.74 C13.66 51.2
								 10.9 50.56 8.16 49.83 C5.43 49.11 2.71 48.31 0 47.49 L66.51 47.35 Z" class="st1"/>
					<path d="M66.51 47.35 C65.89 47.68 65.24 47.98 64.59 48.25 C63.94 48.52 63.27 48.77 62.6 49 C61.26 49.45 59.89
								 49.84 58.52 50.18 C57.14 50.53 55.76 50.83 54.37 51.12 C53.67 51.27 52.98 51.41 52.28 51.54 C51.59
								 51.68 50.89 51.81 50.2 51.94 C49.5 52.07 48.8 52.2 48.1 52.32 C47.41 52.44 46.71 52.55 46.01 52.66
								 C45.31 52.77 44.61 52.86 43.9 52.95 C43.2 53.04 42.5 53.11 41.79 53.19 C38.97 53.48 36.14 53.76
								 33.3 53.75 C30.47 53.73 27.64 53.43 24.83 53.07 C22.01 52.7 19.21 52.28 16.44 51.74 C13.66 51.2
								 10.9 50.56 8.16 49.83 C5.43 49.11 2.71 48.31 0 47.49" class="st3"/>
				</g>
			</g>
		</g>
	</g>
</svg>
